<?xml version="1.0" ?><!DOCTYPE svg  PUBLIC '-//W3C//DTD SVG 1.1//EN'  'http://www.w3.org/Graphics/SVG/1.1/DTD/svg11.dtd'><svg height="512px" id="Layer_1" style="enable-background:new 0 0 512 512;" version="1.1" viewBox="0 0 512 512" width="512px" xml:space="preserve" xmlns="http://www.w3.org/2000/svg" xmlns:xlink="http://www.w3.org/1999/xlink"><g><path d="M417.4,224H94.6C77.7,224,64,238.3,64,256c0,17.7,13.7,32,30.6,32h322.8c16.9,0,30.6-14.3,30.6-32   C448,238.3,434.3,224,417.4,224z" fill="#90A4A9"/><path d="M417.4,96H94.6C77.7,96,64,110.3,64,128c0,17.7,13.7,32,30.6,32h322.8c16.9,0,30.6-14.3,30.6-32   C448,110.3,434.3,96,417.4,96z" fill="#9FA4B4"/><path d="M417.4,352H94.6C77.7,352,64,366.3,64,384c0,17.7,13.7,32,30.6,32h322.8c16.9,0,30.6-14.3,30.6-32   C448,366.3,434.3,352,417.4,352z" fill="#9FB4BF"/></g></svg>